<?xml version="1.0" encoding="utf-8"?>
<!-- Generator: Adobe Illustrator 24.1.3, SVG Export Plug-In . SVG Version: 6.00 Build 0)  -->
<svg version="1.1" id="Layer_1" xmlns="http://www.w3.org/2000/svg" xmlns:xlink="http://www.w3.org/1999/xlink" x="0px" y="0px"
	 viewBox="0 0 555 289" style="enable-background:new 0 0 555 289;" xml:space="preserve">
<style type="text/css">
	.st0{fill:#98BDFF;}
	.st1{fill:#DAE7FF;}
	.st2{clip-path:url(#SVGID_2_);}
	.st3{fill:#74A67E;}
	.st4{fill:#4B49AC;}
	.st5{fill:#355389;}
	.st6{fill:#6C7DAC;}
	.st7{fill:#13375B;}
	.st8{fill:#184655;}
	.st9{fill:#F7CC7F;}
	.st10{fill:#F79191;}
	.st11{fill:#F8A492;}
	.st12{fill:#F47458;}
	.st13{fill:#B75742;}
	.st14{fill:#F48C7F;}
	.st15{fill:#07345A;}
	.st16{fill:#FAE0B2;}
	.st17{fill:#F79C8D;}
</style>
<path class="st0" d="M20,0h515c11,0,20,9,20,20v249c0,11-9,20-20,20H20c-11,0-20-9-20-20V20C0,9,9,0,20,0z"/>
<rect y="0" class="st1" width="555" height="289"/>
<g>
	<defs>
		<rect id="SVGID_1_" y="0" width="555" height="289"/>
	</defs>
	<clipPath id="SVGID_2_">
		<use xlink:href="#SVGID_1_"  style="overflow:visible;"/>
	</clipPath>
	<g class="st2">
		<path class="st3" d="M95.2,275.7c0,0,70.2-112.7,97-117.7c26.8-5,49.7,41.1,49.7,41.1s12.1-10.5,30.7-6.4
			c18.6,4.1,118.6,97.6,118.6,97.6l-301.1-3.7L95.2,275.7z"/>
		<path class="st3" d="M128.5,184c62.4,10.3,155.9,103.3,227.2,103.3c71.3,0,86.6-22.2,113.3-17.5c26.7,4.7,62.6,17.5,62.6,17.5
			L2,288.8C2,288.8,66.1,173.6,128.5,184z"/>
		<path class="st4" d="M169.5,144.6l-12.2,98.2h24.4L169.5,144.6z"/>
		<path class="st4" d="M192.3,166.6l-12.2,98.2h24.4L192.3,166.6z"/>
		<path class="st5" d="M24.6,238.4h-3.7v41.3h3.7V238.4z"/>
		<path class="st4" d="M22.8,158.4l-12.2,98.2H35L22.8,158.4z"/>
		<path class="st4" d="M15,220.9l17.4,14.9l-0.7-5.4l-16.2-13.8L15,220.9z"/>
		<path class="st4" d="M17.7,199.4l10.6,3.6l-0.5-4l-9.7-3.3L17.7,199.4z"/>
		<path class="st5" d="M52,222.3h-2.7v46.9H52V222.3z"/>
		<path class="st4" d="M51.3,138.7l-13.2,94.7h26.5L51.3,138.7z"/>
		<path class="st4" d="M38.9,227.3l23.7-7.5l-0.4-2.6l-23,7.2L38.9,227.3z"/>
		<path class="st4" d="M43.1,197.4l15.7-4.9l-0.4-2.6l-15,4.7L43.1,197.4z"/>
		<path class="st3" d="M2,288.8c0,0,68.4-59.2,156.5-62.8c29.6-1.2,150.8,23.3,252.9,42.5c4.3,0.8,13.6,8.7,17.9,9.5
			c48.3,9.1,93.4,11,107.9,11.6L2,288.8z"/>
		<path class="st4" d="M541.9,223.7l0.1-5.1c0-3.8-2.9-6.8-6.5-6.8c-9,0-16.3,7.7-16.3,17.3v7c0,3.1-1.6,5.7-4,7
			c-2.2,1.2-3.5,3.6-3.5,6.2v3.7c0,4,1.8,7.7,4.7,10.2c1.7,1.5,2.8,3.7,2.8,6.2v5.2c0,5.8,4.4,10.4,9.8,10.4h3.1
			c5.4,0,9.8-4.7,9.8-10.4c-0.9-7.3,1.3-11.5,3.8-13.8c3.7-3.5,5.8-8.5,5.8-13.7v-0.7c0-5.5-2.4-10.7-6.4-14.2
			C543.3,230.4,541.9,227.9,541.9,223.7z"/>
		<path class="st3" d="M552,290.9c0,0-25.1-33.2-40.9-38.3c-15.8-5.1-0.9,15.1-0.9,15.1s-28-30.5-38.3-27.8c-9.4,2.5,0,21.5,0,21.5
			s-10.6-10.5-23.5-10.5c-12.9,0,9.9,39.3,9.9,39.3L552,290.9z"/>
		<path class="st4" d="M471.9,290.2c0,0-17.2-45.7-38.4-40.4c-17.2,4.3-5,27.3-6,26.3c-1.1-1-10.3-16.7-25.2-16.7
			c-14.9,0,4.6,21.1,4.6,21.1s-31.8-9.9-34.3,0.5c-2.1,8.6,9.5,9.3,9.5,9.3L471.9,290.2L471.9,290.2z"/>
		<path class="st6" d="M254.7,221.5c1.3,0.8,2.4,1.8,3.6,2.7c6.3,4.9,12.6,9.7,21.2,19.8c11.5,13.5,20.1,28.7,25.4,45.4
			c0.2,0.6,1.1,0.3,0.9-0.3c-3.4-10.7-8.3-21-14.4-30.5C275,233,254.4,221.4,254.7,221.5z"/>
		<path class="st6" d="M285.8,224.6c1.4,9,6.1,17.2,9.4,25.6c8.7,22.6,10.2,39.8,10.9,41.7c0.1,0.2,0.3,0.2,0.4,0
			c0.2-1.8-1.7-14.2-5.5-27c-6.3-21.4-12.9-29.8-14.9-40.3C286.1,224.3,285.8,224.4,285.8,224.6z"/>
		<path class="st6" d="M265,222c-0.2,0.5-1.2,1.7-1.3,3.3c-0.3,1.5,0.3,3.2,0.4,3.1c0.1,0-1.5-1-2.1-2.8c-0.8-1.7-0.7-4.2-0.2-5.1
			c1-2,3-2.5,3.6-1.6C265.9,219.6,265.5,220.9,265,222z"/>
		<path class="st6" d="M279.3,236.3c-0.2,0.5-1,1.9-0.9,3.4c-0.1,1.5,0.7,3.1,0.7,3c0.1,0-1.5-0.8-2.4-2.5c-1-1.6-1.2-4.1-0.8-5.1
			c0.7-2.1,2.7-2.8,3.3-2C279.9,233.9,279.7,235.2,279.3,236.3z"/>
		<path class="st6" d="M297.6,243.3c-0.4,0.1-1.5,0.3-2.4,1c-0.9,0.6-1.5,1.8-1.4,1.8c0,0.1-0.3-1.2,0.3-2.5
			c0.5-1.3,1.8-2.6,2.6-2.8c1.5-0.6,2.9,0.3,2.7,1C299.2,242.5,298.3,243,297.6,243.3z"/>
		<path class="st6" d="M299.4,247.7c-0.4,0.1-1.5,0.3-2.4,1c-0.9,0.6-1.5,1.8-1.4,1.8c0,0.1-0.3-1.2,0.3-2.5
			c0.5-1.3,1.8-2.6,2.6-2.8c1.5-0.6,2.9,0.3,2.7,1C301,246.9,300.1,247.4,299.4,247.7z"/>
		<path class="st6" d="M259,231.3c0.3-0.4,1-1.7,2.2-2.4c1.1-0.8,2.8-0.9,2.7-0.9c0.1,0.1-1.4-0.8-3.1-0.7c-1.7,0-3.8,1-4.4,1.8
			c-1.3,1.6-0.9,3.5,0,3.6C257.3,232.9,258.3,232.1,259,231.3z"/>
		<path class="st6" d="M267.7,239.4c0.3-0.4,1-1.7,2.2-2.4c1.1-0.8,2.8-0.9,2.7-0.9c0.1,0.1-1.4-0.8-3.1-0.7c-1.7,0-3.8,1-4.4,1.8
			c-1.3,1.6-0.9,3.5,0,3.6C266.1,241,267,240.2,267.7,239.4z"/>
		<path class="st6" d="M283.3,232.2c0.5,0,1.9-0.2,3.2,0.4c1.3,0.5,2.4,1.7,2.3,1.7c0,0.1-0.1-1.6-1.2-3c-1-1.4-3.1-2.5-4.1-2.5
			c-2-0.1-3.4,1.3-2.9,2.1C281,231.8,282.2,232,283.3,232.2z"/>
		<path class="st6" d="M285.8,238.3c0.5,0,1.9-0.2,3.2,0.4c1.3,0.5,2.4,1.7,2.3,1.7c0,0.1-0.1-1.6-1.2-3c-1-1.4-3.1-2.5-4.1-2.5
			c-2-0.1-3.4,1.3-2.9,2.1C283.6,238,284.8,238.2,285.8,238.3z"/>
		<path class="st6" d="M278.9,251.8c0.3-0.4,1-1.7,2.2-2.4c1.1-0.8,2.8-0.9,2.7-0.9c0.1,0.1-1.4-0.8-3.1-0.7c-1.7,0-3.8,1-4.4,1.8
			c-1.3,1.6-0.9,3.5,0,3.6C277.2,253.4,278.2,252.6,278.9,251.8z"/>
		<path class="st6" d="M253.8,224.6c0.2-0.2,0.9-0.9,1.7-1.2c0.8-0.3,1.9-0.2,1.8-0.2c0,0-0.7-0.7-1.9-0.9c-1.1-0.2-2.5,0.1-3,0.6
			c-1,0.8-1,2.1-0.5,2.3C252.6,225.4,253.3,225,253.8,224.6z"/>
		<path class="st6" d="M256.1,219.6c0,0.3-0.2,1.2,0.1,2.1c0.2,0.8,0.9,1.6,0.9,1.6c0.1,0-1-0.2-1.8-1c-0.8-0.7-1.4-2.1-1.3-2.7
			c0-1.3,1-2.1,1.5-1.7C256,218.1,256.1,218.9,256.1,219.6z"/>
		<path class="st6" d="M531.6,227.9c6.4,20.2,9.4,41.5,8.5,63h0.8c0.8-21.1-2.1-42.4-8.5-62.5c-1.5-4.7-3-10.2-7.4-13
			c-0.1-0.1-0.2,0.1-0.1,0.1C528.9,218.4,530.3,223.5,531.6,227.9z"/>
		<path class="st6" d="M537.3,290.9c-7.9-20.1-18.7-39.6-33-57.8c-0.1-0.2-0.5,0.1-0.3,0.2c13.4,17.5,24.3,36.8,32.3,57.5
			L537.3,290.9L537.3,290.9z"/>
		<path class="st6" d="M533.5,217c-0.4,0.3-1.8,1.1-2.5,2.5c-0.8,1.2-0.9,3-0.9,3c0.1,0.1-1-1.4-0.9-3.3c-0.1-1.9,0.9-4.2,1.8-4.8
			c1.7-1.5,3.7-1.1,3.9-0.1C535.2,215.1,534.3,216.2,533.5,217z"/>
		<path class="st6" d="M526.7,231.6c0.5-0.2,1.9-1,3.4-1c1.5-0.1,3.1,0.7,3,0.7c0,0.1-0.8-1.5-2.5-2.4c-1.6-1-4.1-1.2-5.1-0.7
			c-2.1,0.7-2.8,2.7-2,3.3C524.3,232.2,525.6,232,526.7,231.6z"/>
		<path class="st6" d="M528.9,239.4c0.5-0.2,1.9-1,3.4-1c1.5-0.1,3.1,0.7,3,0.7c0,0.1-0.8-1.5-2.5-2.4c-1.6-1-4.1-1.2-5.1-0.7
			c-2.1,0.7-2.8,2.7-2,3.3C526.5,240,527.8,239.8,528.9,239.4z"/>
		<path class="st6" d="M510.5,251.3c0.5-0.2,1.9-1,3.4-1c1.5-0.1,3.1,0.7,3,0.7c0,0.1-0.8-1.5-2.5-2.4c-1.6-1-4.1-1.2-5.1-0.7
			c-2.1,0.7-2.8,2.7-2,3.3C508.1,251.8,509.4,251.6,510.5,251.3z"/>
		<path class="st6" d="M504.9,242.9c0.5-0.2,1.9-1,3.4-1c1.5-0.1,3.1,0.7,3,0.7c0,0.1-0.8-1.5-2.5-2.4c-1.6-1-4.1-1.2-5.1-0.7
			c-2.1,0.7-2.8,2.7-2,3.3C502.5,243.5,503.8,243.3,504.9,242.9z"/>
		<path class="st6" d="M537,226.1c-0.4,0.3-1.9,0.8-2.8,2.1c-1,1.1-1.4,2.8-1.3,2.8c0.1,0.1-0.7-1.6-0.4-3.4c0.2-1.9,1.6-4,2.6-4.4
			c1.9-1.2,3.9-0.5,3.9,0.5C539,224.5,538,225.4,537,226.1z"/>
		<path class="st6" d="M540.9,235.3c-0.6,0.1-2.4,0.1-3.6,1.2c-1.3,0.9-1.9,2.8-1.9,2.8c0.1,0.1-0.7-2.2-0.1-4.3
			c0.4-2.1,2.3-4.1,3.5-4.2c2.4-0.6,4.7,1.1,4.6,2.3C543.4,234.3,542.1,234.9,540.9,235.3z"/>
		<path class="st6" d="M543.9,248.5c-0.6,0-2.4-0.3-3.8,0.6c-1.4,0.7-2.4,2.4-2.3,2.4c0,0.1-0.3-2.3,0.6-4.3c0.8-2,3-3.6,4.2-3.5
			c2.4-0.2,4.5,1.9,4.2,3.1C546.6,248,545.2,248.4,543.9,248.5z"/>
		<path class="st6" d="M523.5,251.7c-0.5,0.1-2,0.3-2.9,1.2c-1,0.8-1.4,2.4-1.4,2.4c0.1,0.1-0.7-1.8-0.3-3.5
			c0.2-1.8,1.6-3.4,2.6-3.6c1.9-0.6,3.9,0.6,3.9,1.6C525.5,250.8,524.4,251.3,523.5,251.7z"/>
		<path class="st6" d="M522.6,217c0.3-0.1,1.1-0.7,2-0.7c0.9-0.1,1.9,0.3,1.8,0.3c0,0.1-0.5-0.9-1.6-1.3c-1-0.5-2.5-0.5-3-0.2
			c-1.2,0.5-1.5,1.7-1,2.1C521.2,217.4,522,217.2,522.6,217z"/>
		<path class="st6" d="M526.2,212.6c-0.1,0.3-0.5,1.1-0.5,2c0,0.9,0.5,1.8,0.5,1.8c0.1,0-0.9-0.4-1.5-1.4c-0.6-0.9-0.8-2.4-0.6-3
			c0.4-1.3,1.5-1.7,1.9-1.3C526.4,211.2,526.3,212,526.2,212.6z"/>
		<path class="st6" d="M501.4,235c0.3-0.1,1.1-0.7,2-0.7c0.9-0.1,1.9,0.3,1.8,0.3c0,0.1-0.5-0.9-1.6-1.3c-1-0.5-2.5-0.5-3-0.2
			c-1.2,0.5-1.5,1.7-1,2.1C500,235.5,500.8,235.3,501.4,235z"/>
		<path class="st6" d="M505.4,230.8c-0.1,0.3-0.6,1.1-0.6,2c-0.1,0.9,0.4,1.8,0.4,1.8c0.1,0-0.9-0.5-1.4-1.5c-0.6-1-0.6-2.4-0.3-3
			c0.5-1.2,1.7-1.6,2-1.1C505.8,229.4,505.6,230.1,505.4,230.8z"/>
		<path class="st6" d="M329.7,280.7c0.5,0.3,1.8,1.4,2.4,2c1.8,1.8,3.4,4.4,4.3,7.2c0.1,0.2,0.1,0.4,0.2,0.5c0,0,0.1,0,0.1,0
			c0.1-0.2,0-0.4,0-0.6c-0.4-1.5-1.3-3.3-2.5-5C332,281.8,330.4,281.1,329.7,280.7C329.7,280.7,329.7,280.7,329.7,280.7z"/>
		<path class="st6" d="M327.9,282.5c0.3-0.1,1.1-0.7,2-0.7c0.9-0.1,1.9,0.3,1.8,0.3c0,0.1-0.5-0.9-1.6-1.3c-1-0.5-2.5-0.5-3-0.2
			c-1.2,0.5-1.5,1.7-1,2.1C326.5,282.9,327.3,282.7,327.9,282.5z"/>
		<path class="st6" d="M331.5,278.1c-0.1,0.3-0.5,1.1-0.5,2c0,0.9,0.5,1.8,0.5,1.8c0.1,0-0.9-0.4-1.5-1.4c-0.6-0.9-0.8-2.4-0.6-3
			c0.4-1.3,1.5-1.7,1.9-1.3C331.7,276.7,331.6,277.5,331.5,278.1z"/>
		<path class="st6" d="M213.2,266.2c12.1,3.7,22.6,11.3,32.7,18.8c6.8,5,6.2,6,7.7,6.8c0.2,0.1,0.5-0.1,0.5-0.3
			c-0.4-1.3-1.8-2.3-2.7-3.2c-1.1-1-2.3-1.9-3.5-2.8c-2.6-1.9-5.2-3.7-7.9-5.5c-5.4-3.7-10.9-7.2-16.8-10
			C220,268.4,216.7,267.1,213.2,266.2C213.2,266.1,213.2,266.2,213.2,266.2z"/>
		<path class="st6" d="M225.1,264.5c-0.2,0.5-1,1.9-0.9,3.4c-0.1,1.5,0.7,3.1,0.7,3c0.1,0-1.5-0.8-2.4-2.5c-1-1.6-1.2-4.1-0.8-5.1
			c0.7-2.1,2.7-2.8,3.3-2C225.7,262.1,225.5,263.4,225.1,264.5z"/>
		<path class="st6" d="M235.3,270.5c-0.2,0.5-1,1.9-0.9,3.4c-0.1,1.5,0.7,3.1,0.7,3c0.1,0-1.5-0.8-2.4-2.5c-1-1.6-1.2-4.1-0.8-5.1
			c0.7-2.1,2.7-2.8,3.3-2C235.9,268.1,235.6,269.4,235.3,270.5z"/>
		<path class="st6" d="M245.5,277.5c-0.2,0.5-1,1.9-0.9,3.4c-0.1,1.5,0.7,3.1,0.7,3c0.1,0-1.5-0.8-2.4-2.5c-1-1.6-1.2-4.1-0.8-5.1
			c0.7-2.1,2.7-2.8,3.3-2C246,275.1,245.8,276.4,245.5,277.5z"/>
		<path class="st6" d="M219.9,274.1c0.3-0.4,1-1.7,2.2-2.4c1.1-0.8,2.8-0.9,2.7-0.9c0.1,0.1-1.4-0.8-3.1-0.7c-1.7,0-3.8,1-4.4,1.8
			c-1.3,1.6-0.9,3.5,0,3.6C218.3,275.7,219.2,274.9,219.9,274.1z"/>
		<path class="st6" d="M230.5,280.2c0.3-0.4,1-1.7,2.2-2.4c1.1-0.8,2.8-0.9,2.7-0.9c0.1,0.1-1.4-0.8-3.1-0.7c-1.7,0-3.8,1-4.4,1.8
			c-1.3,1.6-0.9,3.5,0,3.6C228.9,281.8,229.8,281,230.5,280.2z"/>
		<path class="st6" d="M212.1,268.3c0.2-0.2,0.9-0.9,1.7-1.2c0.8-0.3,1.9-0.2,1.8-0.2c0,0-0.7-0.7-1.9-0.9c-1.1-0.2-2.5,0.1-3,0.6
			c-1,0.8-1,2.1-0.5,2.3C210.8,269.1,211.5,268.7,212.1,268.3z"/>
		<path class="st6" d="M214.4,263.2c0,0.3-0.2,1.2,0.1,2.1c0.2,0.8,0.9,1.6,0.9,1.6c0.1,0-1-0.2-1.8-1c-0.8-0.7-1.4-2.1-1.3-2.7
			c0-1.3,1-2.1,1.5-1.7C214.3,261.8,214.4,262.6,214.4,263.2z"/>
		<path class="st7" d="M77.8,92.3c-4.7,1.3-5.5,19.4-5.5,19.4l-15-1.7c0,0,2.7-18.9,10.6-26.8c7.9-7.9,27.9-3.1,35.5,1.8
			c7.6,4.9,4.3,11.2,4.3,11.2S82.5,91,77.8,92.3z"/>
		<path class="st5" d="M62.8,107.4c-0.8,17.2-5.6,18.8-5.7,19c-0.1,0-4,3-8.3-0.9l1.4-1.4c0.6,0.6,1.5,1.2,2.4,1.4
			c2,0.5,3.3-0.5,3.4-0.5c0.1-0.1,1.1-0.7,1.6-1.5c2.5-3.3,3.7-11.9,4-16L62.8,107.4z"/>
		<path class="st8" d="M113.1,94.8c0,0-2.1,8.2-2.3,14.9c-0.2,6.7-4.9,12.2-5.5,28.9c-0.6,16.7-3,32-3,32S83.7,171.9,80,168
			c-3.7-3.9-2.1-39.7,1.5-57.1c3.6-17.4-12.3-22.1-4-27.8c8.3-5.7,19-1.8,23.6-0.3C105.7,84.4,113.2,91.1,113.1,94.8z"/>
		<path class="st9" d="M82.4,108.6c0,0-2.2,13.3-0.5,26.8c1.7,13.5-1,40.1-1,40.1s-13.8,9.6-17.9,2c-0.8-1.4-2.6-18.5-2.8-25.6
			c-0.2-7.6,0.9-34,1.2-42.6c0.1-1.8,0.6-3.5,1.6-5.1c3-4.9,10-15.8,12.4-16.2C78.5,87.5,84,94.3,82.4,108.6z"/>
		<path class="st7" d="M61,118.5c1.9,1.9,14.3,13.8,20.5,14.6c-0.1-0.8-0.1-1.5-0.2-2.3c-4.9-0.8-15.8-10.8-20.2-15.1
			C61.1,116.6,61.1,117.5,61,118.5z"/>
		<path class="st7" d="M82.3,150.4c0-0.7,0-1.5,0-2.2c-3.8,1.6-17,0.6-22.2,0c0,0.8,0,1.5,0,2.1C65,150.8,77.9,152.2,82.3,150.4z"/>
		<path class="st7" d="M61.4,167.6c0.1,0.7,0.2,1.4,0.2,2c5.2,1,15.3-3.4,20.1-5.5c0-0.8,0.1-1.6,0.1-2.4
			C77.4,163.7,66,168.5,61.4,167.6z"/>
		<path class="st7" d="M61.1,164.7c2.3,1,16.8,7.1,20,7.4c0.1-0.6,0.1-1.3,0.2-2c-2.3-0.2-13.3-4.8-20.4-7.8
			C60.9,163.1,61,163.9,61.1,164.7z"/>
		<path class="st4" d="M75.2,170.7h4.6c1.7,0,3-1.4,3-3v-27.1c0-1.7-1.4-3-3-3h-4.6c-1.7,0-3,1.4-3,3v27.1
			C72.2,169.4,73.6,170.7,75.2,170.7z"/>
		<path class="st7" d="M82.9,147.5H72.2v2.2h10.7V147.5z"/>
		<path class="st10" d="M74.3,264c0,0-4.9,4.5-5,4.5c-0.7,0.5-2.6,1.6-3.1,2.2c-2,2.1,11,7.3,9.8,4.3c-0.1-0.3-0.3-2.6,0.3-3.4
			c1-1.2,2.7-2.9,2.7-2.9L74.3,264z"/>
		<path class="st8" d="M76.1,275c0,0-2.8-1.5-4.1-2.4c-1.3-0.9-1.4-3.7-2.6-4.1c-1.3-0.4-6.5,4.9-6.5,4.9s10.3,11.2,15.7,14.9
			c1.2,0.8,2.6,0.5,3.1,0.6C83.6,288.8,79.1,280.8,76.1,275z"/>
		<path class="st10" d="M136.6,272.7c0,0,1.5,7.4,1.5,7.4c0.1,1,0.1,3.4,0.3,4.3c0.8,3.2,13.4-6.5,9.8-7c-0.3-0.1-1.9-0.7-2.5-1.7
			c-1-1.7-1.9-4.9-1.9-4.9L136.6,272.7z"/>
		<path class="st8" d="M148.3,277.4c0,0-3,1.9-4.7,2.5c-1.6,0.7-4.6-1.2-5.7-0.4c-1.2,1,0.7,9.5,0.7,9.5s21.4-5.7,26-8.6
			C166.5,279.3,155.7,277.9,148.3,277.4z"/>
		<path class="st11" d="M151.6,165.8c-3.4-1.5-3.6-0.9-4-1.1c-0.5-0.2-4.3-6.7-4.3-6.7s-11.3-18.8-11.8-19.9l-2.2-22.7l-11.9-1.7
			c0,0,3.1,24.6,3.5,25.8c0.4,1.2,18.7,24.9,20.3,27c0,0,0.9,3.2,1.5,5.2c0.6,2,2.1,3.6,2.4,4.2c0,0.1,1,1.8,2.8,3.6
			c1.6,1.6,0.8-0.6,0.8-0.6s-2.3-3.4-2-3.6c0.2-0.1,1.4,1.8,3.1,3.6c0.4,0.4,0.9,0.9,1.3,1.3c1.1,1.1,2,0.7,1.1-0.6
			c-0.3-0.5-0.9-1.2-1.4-1.7c-0.5-0.5-0.8-1.1-1.2-1.6c-0.7-1-1.3-1.7-1.2-1.7c0.1,0,0.1-0.3,0.6,0.2c0.6,0.6,1.5,2,2.4,2.8
			c0.5,0.4,1.5,1.4,1.5,1.4s1.8,1.1,1.9,1.1c0.6-0.5-0.4-1.6-1.2-2.1c-0.3-0.6-1.4-1.5-1.4-1.5s-1.8-2.5-1.4-2.7
			c0.2-0.1,1.4,1.3,2.9,2.4c1.4,1.1,2.9,1.9,3.2,1.7c0.5-0.4-0.9-1.8-0.9-1.8s-1-0.9-1.3-1.2c-0.4-0.4-1.4-1.6-1.4-1.6
			s-3.3-4.4-3-4.6c0.4-0.2,1.5-0.4,1.8-0.2c0.3,0.2,0.7,0.9,1,1.1c0.3,0.2,0.9,0.2,1.2-0.2c0.3-0.4-0.8-1.9-0.8-1.9
			S152.6,166.3,151.6,165.8z"/>
		<path class="st4" d="M118.3,94.8c9.2,2.2,11.6,22.7,12.1,25.4c-3.1,1.1-6.7,2.2-9.8,3.1l-3.8-28.9
			C116.9,94.4,117.4,94.6,118.3,94.8z"/>
		<path class="st5" d="M125.1,171l13.3,52.9l8.4,51.2l-10.5,1.4c0,0-14.7-39.2-15.1-43.7c-0.4-4.5-7.8-25.6-7.8-25.6L125.1,171z"/>
		<path class="st7" d="M94.1,164.9c0,0,1,50.7,0.2,55.4c-0.8,4.7-23.1,44.9-23.1,44.9l7.5,8.1c0,0,31.8-36.8,33.2-40
			c2.2-5.1,13.1-62.4,13.1-62.4L94.1,164.9z"/>
		<path class="st3" d="M106.3,94.7c0,0-5.6-0.5-7.9,4.8c-2.3,5.3-4.5,30.9-3.5,43.2c1,12.3-3.3,29.3-3.3,29.3
			c19.7,10.1,33.6-0.8,33.6-0.8s5.2-47.1,3.3-55.7c-4-18.2-11.7-21.1-11.7-21.1L106.3,94.7z"/>
		<path class="st11" d="M90.7,179.5c-2.1-3.5-2.6-3-2.9-3.4c-0.3-0.5,0-8.8,0-8.8s0.9-24.3,0.9-25.6l10.9-22.4l-9.4-8.8
			c0,0-11.2,24.7-11.6,26.1c-0.4,1.4,2.2,34.4,2.4,37.3c0,0-1.1,3.5-1.7,5.8c-0.6,2.2-0.2,4.6-0.3,5.3c0,0.1-0.1,2.3,0.4,5.1
			c0.5,2.4,1.1-0.1,1.1-0.1s-0.1-4.6,0.3-4.5c0.3,0,0.2,2.5,0.7,5.2c0.1,0.7,0.3,1.4,0.4,2c0.3,1.6,1.4,1.9,1.3,0.1
			c0-0.6-0.1-1.6-0.2-2.4c-0.2-0.8-0.1-1.5-0.1-2.2c-0.1-1.3-0.1-2.3-0.1-2.3c0.1,0,0.2-0.2,0.4,0.5c0.2,0.9,0.2,2.8,0.6,4
			c0.2,0.7,0.6,2.2,0.6,2.2s1,2.2,1.1,2.2c0.8-0.1,0.5-1.7,0.1-2.7c0-0.7-0.4-2.3-0.4-2.3s-0.1-3.4,0.3-3.4c0.2,0,0.5,2,1.2,4
			c0.6,1.8,1.5,3.6,1.8,3.5c0.6-0.1,0.2-2.2,0.2-2.2s-0.4-1.5-0.5-1.9c-0.1-0.6-0.3-2.3-0.3-2.3s-0.4-6.1,0-6.1
			c0.4,0,1.6,0.5,1.7,0.9c0.2,0.4,0.1,1.2,0.2,1.6c0.2,0.4,0.7,0.7,1.1,0.6c0.5-0.2,0.4-2.2,0.4-2.2S91.3,180.5,90.7,179.5z"/>
		<path class="st4" d="M85.6,117l12.4,9.6c0,0,5.5-5.2,8.2-10.9c2.8-5.8-0.6-21.1-3.6-20.3C96,97.1,85.6,117,85.6,117z"/>
		<path class="st10" d="M108.7,83.3l-1.8,12.1c0,0,6.8,14.5,10.8,13.2c3.4-1.1,1.3-13.8,1.3-13.8s-1.8-6.9-1.3-10.3
			C118.2,81.1,108.7,83.3,108.7,83.3z"/>
		<path class="st12" d="M117.6,84.5c0.6-3.4-8.9-1.2-8.9-1.2l-0.2,1c0.3,0.7,0.6,1.3,1,1.7c2.1,2.3,5.4,3.6,8.3,3.7
			C117.6,87.9,117.4,85.9,117.6,84.5z"/>
		<path class="st10" d="M107.1,66.1c-0.3-0.1-2.2,13.8,1.4,17.7c3.6,3.8,10.5,5.1,13,2.1c2.8-3.3,2.6-18.3-2.9-22.3
			S107.1,66.1,107.1,66.1z"/>
		<path class="st8" d="M116.5,56.2c-4.3,0.9-7.1,3.5-8.1,4.6c-1.9,0.2-4.6,1.3-7.3,5.8c-3.4,5.6-0.9,11.7,3,14.7
			c3.9,3,3.9,6.5,3.9,6.5l0.6-1.8c0.5-1.4,0.6-2.8,0.5-4.2c-0.1-0.9-0.3-1.8-0.6-2.6c-0.9-2,2-3.4,2.9-5c0.6-1.3,0.7-4.2,1.7-6.4
			l1.2-1.6c0,0,2.8-2.2,5.5-1.5C122.4,65.2,122,55,116.5,56.2z"/>
		<path class="st10" d="M111.1,76.7c0,1.7-0.7,3.1-1.7,3.1c-1,0-1.8-1.3-1.8-3s0.7-3.1,1.7-3.1S111.1,75,111.1,76.7z"/>
		<path class="st8" d="M113.4,120.5c0.3-10.6-0.4-25.1-10.5-29.3c-3.6-1.5-8,0.2-11.4,1.4c4.1-0.6,8,1,10,2.1
			c8.3,4.2,8.3,16.2,8,25.6c-0.8,23.6-18.9,21.1-18.9,21.1l-0.4,1.6c0,0,6.8,2.2,15.5-2C112.5,137.6,113.4,120.5,113.4,120.5z"/>
		<path class="st6" d="M446.7,198c0,0-5.6,27.4-3,30c2.6,2.5,16.7,7.7,19.9,6.5c3.2-1.2,9.8-32.5,8-35.6
			C469.6,195.8,448.1,193.7,446.7,198z"/>
		<path class="st10" d="M448.9,279.4c0,0,0.4,3.1,0.4,3.7c0,0.5,0,0.5,0,0.5l-0.3,0.5l-0.1,0.2l1.9,2.6c0,0,7.6,0.1,7.8,0.1
			c0.2,0-1-1.8-1-1.8s-2.5-1.9-3-3.2c-0.5-1.3,0.4-4.1,0.4-4.1L448.9,279.4z"/>
		<path class="st10" d="M412.4,260.6c0,0-2.7,1.7-3.1,2c-0.4,0.3-0.4,0.3-0.4,0.3l-0.3,0.5l-0.1,0.2l-3.3,0.2c0,0-4.8-5.9-4.9-6
			c-0.1-0.1,1.4,0.2,1.4,0.2s3,0.4,4.4-0.1c1.3-0.5,4-3.1,4-3.1L412.4,260.6z"/>
		<path class="st13" d="M436.9,231l-29.1,24.7l4.5,6.3c0,0,28.6-17.9,30.1-18.1c1.6-0.2,4,0.3,4.3,1.5c0.3,1.1,1.2,34.8,1.2,34.8
			h7.8l4.1-43L436.9,231z"/>
		<path class="st10" d="M478.8,195.8c2.2-1.4,7.2-6.8,8.9-8.7c0-0.2,0.2-1.5,1.6-3.1c1-1.1,1.7-3.7,2.3-3c0.6,0.7-0.9,2.8-0.2,2.8
			c0.7,0,4.3-4,4.9-3.4c0.6,0.7-3.1,4.2-2.4,4.3c0.6,0,3.6-3.6,4.4-2.7c0.8,0.9-3.9,3.9-3.4,4.4c0.4,0.5,3.4-1.5,4-0.7
			c0.7,0.7-4.1,2.5-3.7,2.5c0.4,0,3.1-0.1,3.2,0.5c0,0.6-7,1.5-7.8,2.6c-1.8,2.9-5.1,8.2-8.4,10.5c-4,2.8-13.3,8.9-13.3,8.9l-4.6-6
			C464.2,204.8,476.3,197.5,478.8,195.8z"/>
		<path class="st14" d="M491.5,185.2c0.2,0.4,0.3,0.7,0.3,1.1c0,0.1,0.2,1.3-0.9,2.3C491.2,187.8,491.7,186.9,491.5,185.2z"/>
		<path class="st10" d="M436.2,189.3c-1.7-1.9-5.2-8.5-6.3-10.7c0-0.2,0.2-1.5-0.7-3.4c-0.6-1.3-0.7-4-1.5-3.5
			c-0.8,0.5,0.2,2.9-0.5,2.7c-0.7-0.2-3.1-5-3.8-4.5c-0.7,0.5,1.9,4.9,1.2,4.7c-0.6-0.2-2.5-4.4-3.6-3.7c-1,0.7,2.7,4.8,2.2,5.2
			c-0.6,0.4-2.9-2.3-3.7-1.8c-0.8,0.6,3.3,3.5,2.9,3.4c-0.4-0.1-3-0.9-3.2-0.4c-0.2,0.6,6.3,3.3,6.9,4.5c1,3.3,2.8,9.2,5.3,12.3
			c3.1,3.8,10.5,12,10.5,12l6-4.5C448,201.8,438.2,191.6,436.2,189.3z"/>
		<path class="st14" d="M426.8,175.8c-0.3,0.3-0.4,0.6-0.6,1c0,0.1-0.5,1.2,0.3,2.4C426.3,178.3,426.1,177.4,426.8,175.8z"/>
		<path class="st9" d="M441.1,193.7l-5.4,7.1l6.7,10c0,0-0.6,7.4-1.6,9.8c-1,2.3-6.6,11.8-6.6,11.8s13.7,8.3,27,7.1
			c0,0,3.8-19.3,4.8-21.2c1.1-1.9,11.2-11,11.2-11l-4.9-8l-8.5,4.7c0,0-15.6-2.5-16.4-3.3C446.7,200,441.1,193.7,441.1,193.7z"/>
		<path class="st12" d="M458.7,179.2c0,0-5.3-2.8-7.1,1.8c0,0-4.7-0.5-3.9,4.4c0,0-4.8,2.4-1.7,8.5c0,0-1.3,5.8,5.5,6.2
			c0,0,1,2.1,4.1,1.6c3.1-0.5,3.9-1.3,3.9-1.3s5.5,1.6,7.2-3.3c0,0,3.8-0.9,1.2-5.7c0,0,3.3-6.3-2.5-8.1
			C465.3,183.2,464.6,176.8,458.7,179.2z"/>
		<path class="st10" d="M460.8,192.8c-0.4,1.2-0.1,2.4,0.7,2.7c0.8,0.3,1.8-0.4,2.2-1.6c0.4-1.2,0.1-2.4-0.7-2.7
			C462.2,190.9,461.2,191.6,460.8,192.8z"/>
		<path class="st10" d="M446.6,189.9c-0.1,1.3,0.6,2.3,1.4,2.4c0.9,0,1.6-1,1.7-2.2c0.1-1.3-0.6-2.3-1.4-2.4
			C447.4,187.6,446.7,188.6,446.6,189.9z"/>
		<path class="st10" d="M452.6,198.3c0,0.1-0.7,3-1,4.6c-0.1,0.6,0.2,1.2,0.7,1.4c1.4,0.7,4.3,1.6,6.3-0.2c0.2-0.2,0.3-0.4,0.3-0.6
			l-0.2-7L452.6,198.3z"/>
		<path class="st14" d="M452.3,199.9c1.5,0.8,3.5,0.8,5.6-0.5c0.3-0.2,0.5-0.3,0.8-0.5l-0.1-2.5l-5.9,1.9
			C452.6,198.3,452.5,199,452.3,199.9z"/>
		<path class="st10" d="M456.8,182.1c0,0,2.6,0.7,4.1,3.2c1.5,2.5,2.4,9.8-3.1,13c-5.4,3.2-9.4-1.7-9.3-6.4
			C448.7,187.2,450.8,181.2,456.8,182.1z"/>
		<path class="st6" d="M447.5,289c-1.2-0.1,0.8-4.1,1.5-4.8l8.5,1.1c0,0,4.1,1.9,5.1,2.9c0.2,0.2,0.3,0.6-0.7,0.8
			C458.7,289.4,450.1,289.3,447.5,289z"/>
		<path class="st6" d="M405.6,267.7c1,0.6,2.8-3.3,2.9-4.2l-6.9-5.4c0,0-5.3-1.5-6.4-0.4C394.3,258.6,403.4,266.3,405.6,267.7z"/>
		<path class="st6" d="M463.4,231.7c-5.5-5.5-4.4-22.3-3.4-29.4l2.4,0.3c-0.8,6-2,22.7,2.7,27.4L463.4,231.7z"/>
		<path class="st6" d="M439.9,222.2l-0.3-2.1c4.3-12,8.2-19.8,8.2-19.9l2.1,1.1C450,201.4,445.4,212,439.9,222.2z"/>
		<path class="st4" d="M358,201.9c0,0-9.4-1.2-12.8,0.5c-3.4,1.8-5.3,22.8-5.3,22.8l3,0.9c0,0-0.4,14.5,1.9,15.5
			c2.3,1,18.6-2.1,22.3-5.8c3.7-3.7-3.3-34.7-3.3-34.7L358,201.9z"/>
		<path class="st10" d="M376.5,187c1.1-2.4,2.5-10,2.9-12.6c-0.1-0.2-0.7-1.4-0.4-3.6c0.2-1.5-0.6-4.2,0.4-3.9c1,0.3,0.7,3,1.4,2.6
			c0.6-0.4,1.5-6,2.4-5.7c0.9,0.3-0.3,5.4,0.3,5.1c0.6-0.4,1.1-5.2,2.4-4.8c1.2,0.4-1.2,5.6-0.5,5.8c0.7,0.2,2.1-3.2,3.1-2.9
			c1,0.3-2.2,4.5-1.8,4.3c0.3-0.2,2.7-1.8,3-1.4c0.4,0.5-5.2,5.3-5.4,6.6c0,3.6,0.2,10-1.4,13.9c-1.9,4.8-6.7,15.3-6.7,15.3
			l-7.4-2.6C368.8,203.2,375.2,189.9,376.5,187z"/>
		<path class="st14" d="M381.5,170.6c0.4,0.2,0.6,0.5,0.9,0.8c0,0.1,0.9,1.1,0.5,2.5C382.8,173,382.7,172,381.5,170.6z"/>
		<path class="st10" d="M329,203.8c0,0,0.3-1.2-0.5-3.2c-0.5-1.3-0.5-3.8-1.2-3.3c-0.7,0.5,0.1,2.7-0.6,2.5
			c-0.6-0.2-2.6-4.8-3.3-4.4c-0.7,0.4,1.5,4.7,0.9,4.5c-0.6-0.2-2.1-4.3-3-3.7c-0.9,0.6,2.2,4.6,1.7,4.9c-0.5,0.3-2.5-2.3-3.2-1.8
			c-0.8,0.5,2.8,3.4,2.5,3.3c-0.3-0.1-2.7-1-2.8-0.5c-0.2,0.5,4.6,2.6,5.1,3.8c0.4,1.2,7.8,13.1,10.3,13.4c2.5,0.3,14.3-6,15.3-8.3
			c1.1-2.3,0.3-5-1.2-5.5c-1.6-0.5-12.6,5.8-13.1,5.6C335.4,210.9,329,203.8,329,203.8z"/>
		<path class="st14" d="M326.8,200.6c-0.3,0.3-0.5,0.7-0.6,1c0,0.1-0.5,1.3,0.3,2.5C326.3,203.3,326.1,202.3,326.8,200.6z"/>
		<path class="st10" d="M339,259.5c-1.3-0.4-3.6-2.8-3.6-2.8c-2.9,2.3-9.1,9.3-9.1,9.3s1.1,0.8,2.1,0.3c1-0.4,5.5-2.4,7.5-1.7
			c0.5,0.2,6.6,2.2,12,3.6c0.7-1.9-1.2-5.8-0.3-7.6C344.9,259.8,339.4,259.6,339,259.5z"/>
		<path class="st15" d="M337.5,258.6c0,0-5.3,5.4-5.8,6.3c-0.4,0.8-7,3.5-7.3,2.5c-0.3-1,7.8-11.7,9.1-12.1
			C334.8,254.9,337.5,258.6,337.5,258.6z"/>
		<path class="st10" d="M371.8,275.1c-0.4,1.2-2.8,3.5-2.8,3.5c2.4,2.8,9.8,8.6,9.8,8.6s0.8-1.1,0.3-2c-0.5-0.9-2.8-6.7-2.1-8.7
			c0.2-0.5,1.6-4.4,2.9-6.6c-2-0.6-4-1.6-5.9-2.4C373.1,270.2,371.9,274.7,371.8,275.1z"/>
		<path class="st13" d="M370.9,233.4c0,0,13.8,13.5,15.2,16.1c1,2-5.3,22-5.3,22s-6-0.5-8.5-2.9c0,0,3.2-14,2.5-14.6
			c-0.7-0.6-16.4-9.7-16.4-9.7l2-8.3L370.9,233.4z"/>
		<path class="st12" d="M367.9,233c0,0-3.6,8.3-3.6,11.5c0,2.5,1.1,22.4-4.2,24.3c-3,1.1-17-0.5-17-0.5l1.3-9c0,0,6.7,1,7.3,0.4
			c0.6-0.6-5.4-15.6-4.1-20.7c1.2-5.1,11.5-8.3,11.5-8.3L367.9,233z"/>
		<path class="st3" d="M372.4,194.4c0,0,1.7,0.5,6.8,7.5l-8.3,13.1l-5-12.1L372.4,194.4z"/>
		<path class="st3" d="M360.3,203c0,0,4.6-0.5,6.2-1.1c1.6-0.6,12.5,35,8.7,35.8c-7.9,1.7-28.4,6.2-28.4,6.2s-0.4-2,0.7-5.5
			c1.9-6.1,3-20,3-22.4c0-1.4-7.5,3.6-7.5,3.6l-3.1-11.3c0,0,9.6-3.8,12.9-4.5C353.7,203.4,360.3,203,360.3,203z"/>
		<path class="st4" d="M374.5,225.8c-1.2-5.8-11.4-23.2-11.5-23.4l2.1-1.1c0.4,0.7,8.6,15.4,9.9,21.5L374.5,225.8z"/>
		<path class="st15" d="M371,276.4c0,0,6,5.4,7,5.9c0.9,0.4,2.9,6.8,1.8,7.2c-1.1,0.4-12.2-7.6-12.6-8.9
			C366.7,279.3,371,276.4,371,276.4z"/>
		<path class="st4" d="M347.4,233.4l-1.1-1.7c0.1-0.1,9.1-5.8,10.2-13.2c1-7.4-4.2-15.2-4.3-15.3l1.7-1.1c0.2,0.3,5.7,8.5,4.6,16.7
			C357.4,227.1,347.9,233.2,347.4,233.4z"/>
		<path class="st8" d="M360.4,179.2c0,0,3.6-1.3,6,2.3c2.3,3.7,1.1,3.3,2.2,5.1c1.1,1.8,4.1,1.4,4.1,4.3c0,2.8-1.3,3.3-1.3,3.3
			s1.2,2.2-0.1,4.5c-1.3,2.3-4.6,4.2-7.4,3.9c0,0-4.2,2.3-8.3,1.2c-4.2-1.1-2.7-1.1-4.4-1.1s-6.3-2.3-5.6-5.7c0,0-2.8-3.3-0.1-6
			c2.7-2.7,3.2-5.5,4.8-9.1C351.8,178.2,358.5,178.3,360.4,179.2z"/>
		<path class="st10" d="M362.8,198.7c0,0-0.2,5,0.3,5.5c0.5,0.5,1.1,1.3,0.4,2.4c-0.7,1.2-3.7,0.4-5.1-0.3c-1.4-0.7-2.2-1.9-2.2-1.9
			l0.7-7.9L362.8,198.7z"/>
		<path class="st13" d="M360.8,200.7c-1-0.3-2.7-1-4-3.1l0.1-1.1l5.9,2.1c0,0,0,1.2,0,2.5C362,201.1,361.3,200.9,360.8,200.7z"/>
		<path class="st10" d="M355.9,190.8c0,0-0.1-2.9-2-2.4c-1.8,0.6-0.4,5,1.1,4.9C356.5,193.2,355.9,190.8,355.9,190.8z"/>
		<path class="st10" d="M361.6,181.2c0,0,2.8-0.1,4.3,2.1c1.5,2.2,3,8.5,0.6,12.9c-2.4,4.3-5.5,3.3-6.7,2.8c-1.3-0.4-3.8-1.4-5-5.5
			C353.5,189.5,354.5,180.4,361.6,181.2z"/>
		<path class="st14" d="M273.5,181.8c-1.2-1-2.1-4.3-1.9-4.5c0.3-0.3,1.4-0.1,1.8,0c0.4,0.1,0.8,0.3,1.1,0.4c0.4,0.1,0.7,0,0.9-0.4
			c0.2-0.4-1.1-1.3-1.6-1.5c-1.6-0.6-6.1-1.5-6.6-1.6c-0.6-0.1-7-8-9.5-10.5c0,0,0,0,0,0c-3.9-4.2-7.6-8.8-8-9.2l-10.5-22.1
			l-9.6,0.7c0,0,11.4,24.7,12.1,25.9c0.3,0.6,10,9.7,10,9.7c5.1,4.2,9.5,7.9,10.4,8.6c0,0,0.9,3.3,2,5.2
			C264.8,183.7,273.2,182,273.5,181.8z"/>
		<path class="st12" d="M234.6,115.4c0,0,7.4-1.3,11.1,25.6l-12.6,3.5l-5.2-14.2L234.6,115.4z"/>
		<path class="st13" d="M249.4,203.2v14c0,2.7,2.2,4.9,4.9,4.9H285c2.7,0,4.9-2.2,4.9-4.9v-14H249.4z"/>
		<path class="st14" d="M288.2,218.5l1.7-1.3c0,0,0,0,0,0v-0.9l-2.3,1.8l-2.4-1.9l2.4-1.9l2.3,1.8v-0.9l-1.7-1.3l1.7-1.3v-0.9
			l-2.3,1.8l-2.4-1.9l2.4-1.9l2.3,1.8v-0.9l-1.7-1.3l1.7-1.3v-0.9l-2.3,1.8l-2.4-1.9l2.4-1.9l2.3,1.8v-0.9l-1.7-1.3l1.7-1.3h-1.2
			l-1.1,0.9l-1.1-0.9h-1.2l1.7,1.3l-2.4,1.9l-2.4-1.9l1.7-1.3h-1.2l-1.1,0.9l-1.1-0.9h-1.2l1.7,1.3l-2.4,1.9l-2.4-1.9l1.7-1.3h-1.2
			l-1.1,0.9l-1.1-0.9h-1.2l1.7,1.3l-2.4,1.9l-2.4-1.9l1.7-1.4h-1.2l-1.2,0.9l-1.2-0.9h-1.2l1.7,1.4l-2.4,1.9l-2.4-1.9l1.7-1.4h-1.2
			l-1.2,0.9l-1.2-0.9h-1.2l1.8,1.4l-2.4,1.9l-2.4-1.9l1.8-1.4h-1.2l-1.2,0.9l-1.2-0.9h-1.2l1.8,1.4l-2.4,1.9l-2.4-1.9l1.8-1.4H253
			l-1.2,0.9l-1.2-0.9h-1.2l1.8,1.4l-1.8,1.4v1.8l1.8,1.4l-1.8,1.4v1.8l1.8,1.4l-1.8,1.5v1.8l1.9,1.4l-1.2,1c0.1,0.2,0.3,0.4,0.4,0.6
			l1.4-1.1l2.4,1.9l-1.2,1c0.3,0.1,0.6,0.1,1,0.2l0.8-0.7l0.9,0.7h1.2l-1.5-1.1l2.4-1.9l2.4,1.9l-1.5,1.1h1.2l0.9-0.7l0.9,0.7h1.2
			l-1.5-1.1l2.4-1.9l2.4,1.9l-1.5,1.2h1.2l0.9-0.7l0.9,0.7h1.2l-1.5-1.2l2.4-1.9l2.4,1.9l-1.5,1.2h1.2l0.9-0.7l0.9,0.7h1.2l-1.5-1.2
			l2.4-1.9l2.4,1.9l-1.5,1.2h1.2l0.9-0.7l0.9,0.7h1.2l-1.5-1.2l2.4-1.9l2.4,1.9l-1.5,1.2h1.2l1-0.7l0.9,0.7c0.3,0,0.6-0.1,0.9-0.2
			l-1.2-1l2.4-1.9l1.3,1c0.1-0.2,0.3-0.4,0.4-0.6L288.2,218.5z M287,213.8l-2.4,1.9l-2.4-1.9l2.4-1.9L287,213.8z M255.4,211.5
			l2.4-1.9l2.4,1.9l-2.4,1.9L255.4,211.5z M257.2,213.9l-2.4,1.9l-2.4-1.9l2.4-1.9L257.2,213.9z M260.7,212l2.4,1.9l-2.4,1.9
			l-2.4-1.9L260.7,212z M261.3,211.5l2.4-1.9l2.4,1.9l-2.4,1.9L261.3,211.5z M266.7,212l2.4,1.9l-2.4,1.9l-2.4-1.9L266.7,212z
			 M267.3,211.5l2.4-1.9l2.4,1.9l-2.4,1.9L267.3,211.5z M272.7,211.9l2.4,1.9l-2.4,1.9l-2.4-1.9L272.7,211.9z M273.3,211.5l2.4-1.9
			l2.4,1.9l-2.4,1.9L273.3,211.5z M278.6,211.9l2.4,1.9l-2.4,1.9l-2.4-1.9L278.6,211.9z M279.2,211.5l2.4-1.9l2.4,1.9l-2.4,1.9
			L279.2,211.5z M284.6,207.3l2.4,1.9l-2.4,1.9l-2.4-1.9L284.6,207.3z M281.6,204.9l2.4,1.9l-2.4,1.9l-2.4-1.9L281.6,204.9z
			 M278.6,207.3l2.4,1.9l-2.4,1.9l-2.4-1.9L278.6,207.3z M275.6,204.9l2.4,1.9l-2.4,1.9l-2.4-1.9L275.6,204.9z M272.7,207.3l2.4,1.9
			l-2.4,1.9l-2.4-1.9L272.7,207.3z M269.7,205l2.4,1.9l-2.4,1.9l-2.4-1.9L269.7,205z M266.7,207.3l2.4,1.9l-2.4,1.9l-2.4-1.9
			L266.7,207.3z M263.7,205l2.4,1.9l-2.4,1.9l-2.4-1.9L263.7,205z M260.7,207.3l2.4,1.9l-2.4,1.9l-2.4-1.9L260.7,207.3z M257.7,205
			l2.4,1.9l-2.4,1.9l-2.4-1.9L257.7,205z M254.8,207.3l2.4,1.9l-2.4,1.9l-2.4-1.9L254.8,207.3z M249.4,206.9l2.4-1.9l2.4,1.9
			l-2.4,1.9L249.4,206.9z M249.4,211.6l2.4-1.9l2.4,1.9l-2.4,1.9L249.4,211.6z M251.8,218.1l-2.4-1.9l2.4-1.9l2.4,1.9L251.8,218.1z
			 M254.8,220.4l-2.4-1.9l2.4-1.9l2.4,1.9L254.8,220.4z M257.8,218.1l-2.4-1.9l2.4-1.9l2.4,1.9L257.8,218.1z M260.8,220.4l-2.4-1.9
			l2.4-1.9l2.4,1.9L260.8,220.4z M263.7,218.1l-2.4-1.9l2.4-1.9l2.4,1.9L263.7,218.1z M266.7,220.4l-2.4-1.9l2.4-1.9l2.4,1.9
			L266.7,220.4z M269.7,218l-2.4-1.9l2.4-1.9l2.4,1.9L269.7,218z M272.7,220.4l-2.4-1.9l2.4-1.9l2.4,1.9L272.7,220.4z M275.7,218
			l-2.4-1.9l2.4-1.9l2.4,1.9L275.7,218z M278.7,220.4l-2.4-1.9l2.4-1.9l2.4,1.9L278.7,220.4z M281.6,218l-2.4-1.9l2.4-1.9l2.4,1.9
			L281.6,218z M284.6,220.3l-2.4-1.9l2.4-1.9l2.4,1.9L284.6,220.3z"/>
		<path class="st12" d="M290.6,203.2h-43.1c-0.6,0-1-0.4-1-1v-4c0-0.6,0.4-1,1-1h43.1c0.6,0,1,0.4,1,1v4
			C291.6,202.7,291.1,203.2,290.6,203.2z"/>
		<path class="st16" d="M260.8,197.2l9.3,9.7l7.5-9.7H260.8z"/>
		<path class="st13" d="M280.6,201.6c-0.8,0-1.5-0.7-1.5-1.5v-6.8c0-5.9-4.3-11.9-9.9-11.9l-2.1,0c-5.6,0-9.3,6-9.3,11.9v6.8
			c0,0.8-0.7,1.5-1.5,1.5c-0.8,0-1.5-0.7-1.5-1.5v-6.8c0-7.6,5.9-13.8,13.1-13.8h1.1c7.2,0,13.1,6.2,13.1,13.8v6.8
			C282.2,201,281.5,201.6,280.6,201.6z"/>
		<path class="st16" d="M281.6,200.2c0,0.5-0.4,0.9-0.9,0.9c-0.5,0-0.9-0.4-0.9-0.9c0-0.5,0.4-0.9,0.9-0.9
			C281.2,199.3,281.6,199.7,281.6,200.2z"/>
		<path class="st16" d="M257.3,199.4c0,0.5-0.4,0.9-0.9,0.9c-0.5,0-0.9-0.4-0.9-0.9c0-0.5,0.4-0.9,0.9-0.9
			C256.9,198.6,257.3,199,257.3,199.4z"/>
		<path class="st10" d="M263.6,178.9c0,0-0.8,4.9,1.6,5.5c2.3,0.5,7.7-1.5,7.2-2.4c-0.5-0.9-5.4-4.6-6.2-3.9
			C265.5,178.9,264.6,178.3,263.6,178.9z"/>
		<path class="st8" d="M242.6,92.3c-1.4-9.3-9.9-16-18.7-11.5c-2,1-4.7,3.1-6,4.8c-3.8,4.8-4.7,10.8-8.7,15.4
			c-3.4,4-12.6,3.2-16.9,6.3c-4.3,3.1-7.3,8.6-7.3,15.2c0,7.4,1.7,15.2,7.4,19.9c5.7,4.7,13.9,5.8,21,3.8c7.1-2,13.2-6.8,17.6-12.7
			c4.4-5.9,7.5-12.4,9.7-19.5C243.2,106.2,243.5,98.3,242.6,92.3z"/>
		<path class="st9" d="M239.4,119.1c-4.6-10.2-20-11.4-29.7-5.8c-2.9,1.6-3.4,1.5-5.2,3.3c-4.8,4.8-11.7,53.5,2.8,56.5
			c14.6,3.1,26.9,1.7,31.7-5.8C242.2,162.3,246.5,134.9,239.4,119.1z"/>
		<path class="st10" d="M240.2,270.6c0,0,0.7,8.1,0.3,10.7c-0.1,0.4-0.2,0.8-0.4,1.3c-0.5,1.5,0.9,6,0.9,6l18.5,0.1
			c1,0,0.3-0.6-0.5-1.2c-1.3-1-2.4-1.6-6.7-3.6c-0.3-0.1-1.3-0.8-1.7-1c-0.9-0.5-1.9-1.4-2.7-2.3c-1.3-1.5-1.5-8.6-1.5-8.6
			L240.2,270.6z"/>
		<path class="st5" d="M250.6,282.9c-4.9,1.3-8.5,0.5-10.5-0.3c-0.5,1.5-1.4,6.5-0.9,6.5c4.6,0,8.5,0.9,21.8,0.7
			c0.5,0,0.4-1.6,0.1-2C260.2,286.8,250.9,283.1,250.6,282.9z"/>
		<path class="st8" d="M217,174.7c0,0,0.3,11.5,3.6,18.9c3.2,7.2,18.7,24.9,22.8,35.3c-1.3,5.8-4.8,14-4.5,20.5
			c0.3,7.3-0.1,26.7-0.1,26.7l8.3,0.3l10.9-50.1l-16.4-54l-7.4-13.1L217,174.7z"/>
		<path class="st10" d="M181.6,259.1c0,0-5.1,7-7.3,8.7c-1.2,0.9-4.5,2.2-4.8,3.8c-0.3,1.6,14.8,15.4,14.8,15.4
			c0.8,0.7,0.7-0.3,0.5-1.3c-0.4-1.7-0.8-3-2.8-7.5c-0.1-0.3-0.5-1.5-0.6-1.9c-0.4-1.1-0.5-2.4-0.5-3.7c-0.1-2.1,4.8-7.9,4.8-7.9
			L181.6,259.1z"/>
		<path class="st5" d="M181.2,276.2c-4.8-2.4-7.1-5.5-8.2-7.6c-1.4,0.8-5.3,2.6-5,3.1c2.7,3.9,5.5,8.7,16.2,17.8
			c0.4,0.3,2-1.6,2-2.1C186.2,286.1,181.4,276.6,181.2,276.2z"/>
		<path class="st17" d="M210.3,104.9c0,0-10.8-19.3-13.5-23.4c-2.6-4.1-9.5-20.4-9.7-21c-0.2-0.6,4.7-8.3,3.6-8.6
			c-1.1-0.3-2.3,4.1-3.5,3.5c-1.2-0.5-4.6-10.9-5.3-10.4c-1.3,1,1.9,6.5,1.2,6.8c-0.7,0.3-2.7-6-4-5.9c-1.3,0.2,2.5,5.9,2.1,6.4
			c-0.4,0.5-4.4-4.8-5.1-3.7c-0.4,0.6,3.7,4.7,2.9,5c-0.8,0.4-4.4-2.2-4.8-1.5c-0.4,0.8,3.3,1.8,4.4,3.8c1.1,2,3,2.9,3.8,6.7
			c0.8,3.8,2,17.4,6,24.1c4,6.8,12.9,21.8,12.9,21.8L210.3,104.9z"/>
		<path class="st7" d="M217.6,167.3c0,0-6.4,9.6-7.9,17.5c-1.5,7.7,1,31.1-1.6,41.9c-4.4,4.1-12,8.8-15.5,14.2
			c-4,6.2-15.5,21.8-15.5,21.8l6.6,4.9l37.7-34.8l15.3-46.5l5.2-13.6L217.6,167.3z"/>
		<path class="st4" d="M222.8,112.7c0,0-8.5-0.5-11.8,3.1c-3.4,3.6,7.4,32.4,8.1,37.1c0.6,4.6-5,13.9-5,13.9s23.4,10.9,29.1,7.1
			c0,0-0.9-37.1-1.5-40.4c-0.6-3.3-5.7-16.8-6.9-18.1C233.4,114,222.8,112.7,222.8,112.7z"/>
		<path class="st10" d="M225.6,101.4c0,0,0,0.2-0.1,0.7c-0.4,2-1.8,8.8-2.8,10.6c-1.2,2.2,4.1,9.4,9.1,8.5c1.5-0.3-1.3-6.6-1.1-7.2
			c0.3-1.3,0.6-3,1-4.8c0.2-1,0.4-2,0.6-3c0.5-2.7,1-5,1-5L225.6,101.4z"/>
		<path class="st12" d="M225.5,102.1c0.1-0.4,0.1-0.7,0.1-0.7l7.6-0.2c0,0-0.4,2.2-1,5c-0.2,1-0.4,2-0.6,3c-1.2-0.2-2.4-0.7-3.6-1.8
			c-1.3-1.2-2.2-2.6-2.7-4.1C225.4,102.8,225.4,102.4,225.5,102.1z"/>
		<path class="st10" d="M230.7,84.3c0,0-3.6-0.4-5.8,2.5c-2.2,2.9-4.7,11.8,0.9,16.7c5.6,4.9,11.1-0.6,11.9-6.5
			C238.5,91.1,238.9,84.1,230.7,84.3z"/>
		<path class="st10" d="M239.4,96.9c-0.7,1.3-1.8,2-2.5,1.6c-0.7-0.4-0.8-1.8-0.1-3.1c0.7-1.3,1.8-2,2.5-1.6
			C240,94.2,240,95.6,239.4,96.9z"/>
		<path class="st8" d="M231.1,83.3c0,0-4.8,8.5-8.2,8.9c-3.4,0.4-3.9,4.9-3.9,4.9s1.2-10.4,4.6-12.4
			C227.1,82.7,231.1,83.3,231.1,83.3z"/>
		<path class="st10" d="M223.8,94.3c0.3,1.5-0.3,2.9-1.2,3.1c-1,0.2-2-0.9-2.3-2.4c-0.3-1.5,0.3-2.9,1.2-3.1
			C222.6,91.8,223.6,92.8,223.8,94.3z"/>
		<path class="st4" d="M207.3,98.6c0,0,12,12.8,13.8,18c1.8,5.2-1.7,12.6-6.6,12.9c-4.9,0.3-15.7-22.8-15.7-22.8L207.3,98.6z"/>
		<path class="st9" d="M221.3,110.5c5.3,7,7.7,18.2,4.1,29c-1.5,4.3-3.1,8.4-6.3,12.6c-4,5.3-7.1,6.7-6.8,6.5l-1.2-2.3
			c0,0,1.6-0.8,3.5-2.8c0.1-0.1,4.4-4.1,7.3-11.9c6.9-17.4-2.8-28.5-2.9-28.9c-0.1-0.1-0.1-0.4-0.2-0.4L221.3,110.5z"/>
		<path class="st9" d="M242.5,153.5c-1.6-21.1-10.4-39.2-10.5-39.3l2.4-0.2c0.1,0.1,2.7,1.5,5.1,7.4c2,4.8,4.3,12.4,4.3,22.1
			C243.9,145.5,242.5,153.5,242.5,153.5z"/>
	</g>
</g>
</svg>
